<?xml version="1.0" encoding="UTF-8"?>
<svg id="_图层_1" data-name="图层_1" xmlns="http://www.w3.org/2000/svg" version="1.1" viewBox="0 0 1000 1000">
  <!-- Generator: Adobe Illustrator 30.2.1, SVG Export Plug-In . SVG Version: 2.1.1 Build 1)  -->
  <defs>
    <style>
      .st0 {
        fill-rule: evenodd;
      }

      .st0, .st1 {
        fill: #9e7f63;
      }
    </style>
  </defs>
  <g>
    <g>
      <polygon class="st1" points="334.13 653.93 334.13 579.1 258.54 579.1 253.91 597.62 315.62 597.62 315.62 635.42 315.62 653.93 334.13 653.93"/>
      <path class="st1" d="M282.76,662.35c-6.62,0-13.12,2.29-18.26,6.48l-26.94,20.87c-1.41-.83-2.36-2.38-2.36-4.14v-31.63h68.85l11.57-18.51h-80.42v-9.26h69.13v-18.51h-69.13v-10.03l-4.63-17.75h-13.89v105.69c0,12.87,10.46,23.33,23.33,23.33h3.29l32.86-26.66c1.85-1.5,4.21-2.34,6.59-2.34,2.78,0,5.51,1.13,7.45,3.12l27.28,25.87h15.07l3.56-7.15-32.75-30.78c-5.41-5.46-12.91-8.61-20.62-8.61Z"/>
      <polygon class="st1" points="254.8 585.28 259.43 564.48 229.28 564.48 233.91 585.28 254.8 585.28"/>
      <polygon class="st1" points="648.45 599.6 648.45 581.08 700.18 581.08 700.18 564.48 718.69 564.48 718.69 581.08 774.54 581.08 774.54 599.6 648.45 599.6"/>
      <path class="st1" d="M776.69,690.49v11.36l-3.12,6.97c-13.61-1.44-28.82-12.02-30.74-25.88l-10.89-79.52h18.67l10.58,77.02c.62,4.52,9.16,10.05,15.5,10.05Z"/>
      <polygon class="st1" points="700.17 708.89 715.54 708.89 718.69 701.85 718.69 594.36 700.17 597.44 700.17 708.89"/>
      <path class="st1" d="M659.76,677.69c-.93,7.3-7.18,12.81-14.55,12.81v18.51c16.66,0,30.81-12.46,32.91-28.99l9.74-76.59-19.07,3.18-9.03,71.08Z"/>
      <g>
        <path class="st1" d="M513.71,595.3c0,5.93-9.09,14.12-15.24,17.78l4.72,7.96,4.71,7.97c.64-.37,2.54-1.54,5.01-3.36v83.23h18.51v-92.95h-7.94c4.76-5.56,8.75-12.6,8.75-20.64v-30.82h-18.51v30.82Z"/>
        <polygon class="st1" points="596.82 685.24 596.82 674.62 625.84 674.62 625.84 656.1 596.82 656.1 596.82 639.08 574.92 639.08 574.92 656.1 545.91 656.1 545.91 674.62 574.92 674.62 574.92 690.49 541.32 690.49 541.32 709 626.58 709 630.43 700.46 630.43 690.49 594.47 690.49 596.82 685.24"/>
        <polygon class="st1" points="630.42 626.01 630.42 615.94 594.43 615.94 596.82 610.61 596.82 599.6 625.84 599.6 625.84 581.08 596.82 581.08 596.82 564.48 574.92 564.48 574.92 581.08 545.91 581.08 545.91 599.6 574.92 599.6 574.92 615.94 541.32 615.94 541.32 634.45 626.63 634.45 630.42 626.01"/>
      </g>
      <g>
        <polygon class="st1" points="442.37 677.69 442.37 701.18 459.49 701.18 454.86 677.69 442.37 677.69"/>
        <path class="st1" d="M432.24,564.58h-20.51l-39.79,12.3c-6.44,1.99-13.14,3-19.87,3v18.51h2.57c6.74,0,13.44-1.01,19.87-3l39.79-12.3h15.35l40.98,12.83c5.23,1.64,10.67,2.47,16.15,2.47h2.59v-18.51c-5.48,0-10.92-.83-16.15-2.47l-40.98-12.83Z"/>
        <path class="st1" d="M470.67,687.29c0,6.92-2.34,13.72-6.6,19.18l-1.94,2.52h22.05c3.26-6.73,5-14.19,5-21.71v-34.32h-18.51v34.32Z"/>
        <path class="st1" d="M404.31,671.48h54.79l11.58-18.51h-60.93l1.7-5.8h37.24l11.57-16.2h-17.32v-.02h-48.58v-.02h-11.1v-26.88h-16.2v26.87c0,8.96,7.3,16.25,16.26,16.25h8.83l-1.7,5.8h-20.25c-8.93,0-16.2,7.26-16.2,16.2v39.72h15.35l3.16-7.05v-30.36h12.5l-1.39,4.73c-1.75,5.95-.62,12.2,3.09,17.16s9.4,7.81,15.59,7.81h41.83l4.11-17.24h-46.13c-.12,0-.48,0-.77-.38-.28-.38-.18-.73-.15-.85l3.12-11.23ZM407.37,595.11h-19.43v11.57h26.34l-6.91-11.57ZM442.37,608.21h-15.07l-2.81,4.69h-6.5l-2.8-4.69h-14.69l7.43,10.51-7.38,10.7h15.29l2.2-4.95h6.2l2.27,4.95h15.72l-4.79-10.46,4.93-10.75ZM435.14,595.11l-6.93,11.57h26.35v-11.57h-19.42Z"/>
        <polygon class="st1" points="435.14 587.99 407.36 587.99 411.99 602.24 430.51 602.24 435.14 587.99"/>
        <polygon class="st1" points="472.79 647.17 476.46 640.52 476.46 603.2 460.26 603.2 460.26 630.97 460.26 647.17 472.79 647.17"/>
      </g>
    </g>
    <g>
      <path class="st1" d="M666.37,410.53h64.65c9.96,0,14.84,12.14,7.64,19.03l-26.25,25.14-46.04-44.17Z"/>
      <path class="st1" d="M776.66,490.95l-194.43-168.46c-5.04-4.93-12.5-6.45-19.07-3.88l-346.48,173.83v50.46l345.95-175.87,214.03,175.87v-51.94Z"/>
      <path class="st1" d="M617.81,497.38l5.44-50.36c.34-3.17-2.14-5.94-5.33-5.94h-49.09c-3.19,0-5.68,2.77-5.33,5.94l5.44,50.36c.29,2.72,2.59,4.79,5.33,4.79h38.21c2.74,0,5.04-2.06,5.33-4.79Z"/>
    </g>
    <rect class="st1" x="404.69" y="595.11" width="41" height="11.57"/>
  </g>
  <path class="st0" d="M760.52,290.99c12.69,0,22.79,9.87,22.79,22.48s-10.1,22.62-22.93,22.62-23.07-10.01-23.07-22.62,10.24-22.48,23.07-22.48h.14ZM760.24,295.51c-9.69,0-17.2,8.09-17.2,17.96s7.51,17.96,17.47,17.96c9.69.14,17.06-7.95,17.06-17.82s-7.37-18.09-17.2-18.09h-.14ZM756.83,325.12h-5.19v-22.48c2.05-.27,4.92-.68,8.6-.68,4.23,0,6.14.68,7.64,1.78,1.36.96,2.32,2.6,2.32,4.8,0,2.74-2.05,4.52-4.64,5.34v.28c2.18.68,3.28,2.47,3.96,5.48.68,3.43,1.23,4.66,1.64,5.48h-5.46c-.68-.82-1.09-2.74-1.77-5.48-.41-2.33-1.78-3.43-4.64-3.43h-2.46v8.91ZM756.97,312.51h2.46c2.87,0,5.19-.96,5.19-3.29,0-2.06-1.5-3.43-4.78-3.43-1.36,0-2.32.14-2.87.27v6.44Z"/>
</svg>